<svg xmlns="http://www.w3.org/2000/svg" viewBox="0 0 44.17 44.95"><defs><style>.cls-1{fill:#9d8189;}</style></defs><title>Ресурс 1</title><g id="Слой_2" data-name="Слой 2"><g id="Слой_27" data-name="Слой 27"><path class="cls-1" d="M25.56,30.54l.12,11.8a2.59,2.59,0,0,1-3.86,2.27l-10.18-5.8L1.25,32.91a2.47,2.47,0,0,1,0-4.27l10.27-6.1,10.08-6a2.58,2.58,0,0,1,3.89,2.2Z"/><path class="cls-1" d="M44.17,28.54v4.23a4.87,4.87,0,0,1-5,4.67H17a4.46,4.46,0,0,1-4.59-4.28v-5A4.45,4.45,0,0,1,17,23.87H39.15A4.86,4.86,0,0,1,44.17,28.54Z"/><path class="cls-1" d="M35.6,0h5.14a3.43,3.43,0,0,1,3.43,3.43V32a5,5,0,0,1-5,5h-2a5,5,0,0,1-5-5V3.43A3.43,3.43,0,0,1,35.6,0Z"/></g></g></svg>