<svg xmlns="http://www.w3.org/2000/svg" width="39" height="36" viewBox="0 0 39 36"><g><g><path fill="#ffe5d9" d="M9.614 6.755A3.618 3.618 0 0 1 6 10.369a3.618 3.618 0 0 1-3.614-3.614A3.618 3.618 0 0 1 6 3.14a3.618 3.618 0 0 1 3.614 3.614zm-9.228 0A5.613 5.613 0 0 0 6 12.369 5.613 5.613 0 1 0 6 1.14 5.614 5.614 0 0 0 .386 6.755z"/></g><g><path fill="#ffe5d9" d="M36.919 6.755a3.618 3.618 0 0 1-3.614 3.614 3.618 3.618 0 0 1-3.614-3.614 3.618 3.618 0 0 1 3.614-3.614 3.618 3.618 0 0 1 3.614 3.614zm-9.228 0a5.613 5.613 0 0 0 5.614 5.614 5.613 5.613 0 1 0 0-11.228 5.614 5.614 0 0 0-5.614 5.614z"/></g><g><path fill="#f4acb7" d="M19.654 34.46c-9.116 0-16.533-7.417-16.533-16.533 0-9.116 7.417-16.533 16.533-16.533 9.116 0 16.533 7.417 16.533 16.533 0 9.116-7.417 16.533-16.533 16.533z"/></g><g><path fill="#ffe5d9" d="M35.187 17.927c0 8.566-6.968 15.533-15.533 15.533S4.121 26.493 4.121 17.927c0-8.564 6.968-15.533 15.533-15.533s15.533 6.969 15.533 15.533zm-33.066 0c0 9.684 7.85 17.533 17.533 17.533 9.683 0 17.533-7.85 17.533-17.533 0-9.683-7.85-17.533-17.533-17.533-9.684 0-17.533 7.85-17.533 17.533z"/></g><g><path fill="none" stroke="#ffe5d9" stroke-miterlimit="20" stroke-width="2" d="M12.831 13.063a1.07 1.07 0 1 1-2.14.002 1.07 1.07 0 0 1 2.14-.002z"/></g><g><path fill="none" stroke="#ffe5d9" stroke-miterlimit="20" stroke-width="2" d="M28.892 13.063a1.07 1.07 0 1 1-2.14.002 1.07 1.07 0 0 1 2.14-.002z"/></g><g><path fill="none" stroke="#ffe5d9" stroke-linecap="round" stroke-linejoin="round" stroke-miterlimit="20" stroke-width="2" d="M15.775 21.898v0s0 .268 4.283.268 3.747-.268 3.747-.268v0"/></g></g></svg>