<svg xmlns="http://www.w3.org/2000/svg" viewBox="0 0 987.99 404.07">
  <defs>
    <style>
      .cls-1 {
        fill: #fcebb6;
      }

      .cls-2 {
        fill: #f4dcb5;
      }

      .cls-3 {
        fill: #78c0a8;
      }

      .cls-4 {
        fill: #f8cac1;
      }

      .cls-5 {
        fill: #e2b9b5;
      }

      .cls-6 {
        fill: #84bbbf;
      }

      .cls-7 {
        fill: #f7a3a2;
      }
    </style>
  </defs>
  <title>FirstPage_Girl</title>
  <g id="Слой_5" data-name="Слой 5">
    <g>
      <path class="cls-1" d="M662.09,700A118.22,118.22,0,0,1,544,581.91V435.09a118.09,118.09,0,1,1,236.18,0V581.91A118.22,118.22,0,0,1,662.09,700Z" transform="translate(-541 -314)"/>
      <path class="cls-2" d="M662.09,320c63.3,0,115.09,51.79,115.09,115.09V581.91c0,63.3-51.79,115.09-115.09,115.09h0C598.79,697,547,645.21,547,581.91V435.09C547,371.79,598.79,320,662.09,320h0m0-6A121.41,121.41,0,0,0,541,435.09V581.91a121.09,121.09,0,0,0,242.18,0V435.09A121.43,121.43,0,0,0,662.09,314Z" transform="translate(-541 -314)"/>
    </g>
  </g>
  <g id="Слой_7" data-name="Слой 7">
    <path class="cls-3" d="M740,619V697.9a241,241,0,0,1-57,6.79,238,238,0,0,1-99.36-21.48V619a36.17,36.17,0,0,1,36.07-36.06h84.22A36.17,36.17,0,0,1,740,619Z" transform="translate(-541 -314)"/>
    <path class="cls-3" d="M667.28,677.52l-46.35,19.09a234,234,0,0,1-37.29-13.4c-3-1.4-6-2.85-9-4.38l9.23-64.31Z" transform="translate(-541 -314)"/>
    <rect class="cls-3" x="726.31" y="586.99" width="33.81" height="136.5" rx="16.91" transform="translate(-755.43 87.03) rotate(-26.53)"/>
    <rect class="cls-3" x="763.28" y="592.76" width="33.81" height="126.78" rx="16.91" transform="translate(-314.3 -513.93) rotate(17.05)"/>
  </g>
  <g id="Слой_9" data-name="Слой 9">
    <circle class="cls-4" cx="258.5" cy="279.5" r="16.5"/>
    <rect class="cls-4" x="779.92" y="571.93" width="9" height="26.86" rx="4.5" transform="translate(-682.61 -45.54) rotate(-17.84)"/>
    <rect class="cls-4" x="247.85" y="244.08" width="8.15" height="26.86" rx="4.07"/>
    <rect class="cls-4" x="813.26" y="572.46" width="7.04" height="28.16" rx="3.52" transform="translate(-192 -617.59) rotate(26.59)"/>
    <rect class="cls-4" x="798.55" y="556.69" width="8.15" height="26.86" rx="4.07" transform="translate(-487.09 -383.15) rotate(5.1)"/>
    <rect class="cls-4" x="807.55" y="561.69" width="8.15" height="26.86" rx="4.07" transform="translate(-336.68 -526.71) rotate(17.05)"/>
  </g>
  <g id="Слой_6" data-name="Слой 6">
    <rect class="cls-5" x="97.37" y="222.27" width="44.45" height="70.73" rx="22.23"/>
  </g>
  <g id="Слой_3" data-name="Слой 3">
    <path class="cls-4" d="M763.09,471.37v3.84c0,55.32-45.26,100.57-100.58,100.57h-.12c-55.32,0-100.57-45.25-100.57-100.57v-3.83q0-5.11.5-10.1a101,101,0,0,1,92-90.15c2.65-.21,5.31-.32,8-.32h.13C717.83,370.81,763.07,416.05,763.09,471.37Z" transform="translate(-541 -314)"/>
    <text x="-541" y="-314"/>  </g>
  <g id="Слой_4" data-name="Слой 4">
    <path class="cls-1" d="M660.6,372.72a93.63,93.63,0,0,1-5.28,31.1,92.15,92.15,0,0,1-100.91,61c5.1-55.11,46.14-99.11,97-103.55,2.79-.24,5.6-.37,8.45-.37A95.57,95.57,0,0,1,660.6,372.72Z" transform="translate(-541 -314)"/>
    <path class="cls-1" d="M770.5,471.32a112.15,112.15,0,0,1-12.9.74c-46.69,0-86.17-28.86-99.25-68.59a92,92,0,0,1-3.94-39.73c2.82-.22,5.67-.34,8.55-.34h.15C722.17,363.4,770.48,412,770.5,471.32Z" transform="translate(-541 -314)"/>
  </g>
  <g id="Слой_8" data-name="Слой 8">
    <circle class="cls-6" cx="88.5" cy="167.5" r="11.5"/>
    <circle class="cls-6" cx="151.5" cy="167.5" r="11.5"/>
    <path class="cls-7" d="M697,520c-6.41,16.55-20.33,28-36.45,28s-30-11.45-36.44-28Z" transform="translate(-541 -314)"/>
  </g>
  <g id="Слой_11" data-name="Слой 11">
    <ellipse class="cls-7" cx="63.5" cy="192.5" rx="13.5" ry="10.5"/>
    <ellipse class="cls-7" cx="176.5" cy="192.5" rx="13.5" ry="10.5"/>
  </g>
  <g id="Слой_10" data-name="Слой 10">
    <path class="cls-7" d="M767,443c0,3.4-.15,6.77-.45,10.09C761.65,395.84,716.72,351,662,351s-99.65,44.84-104.55,102.09c-.3-3.32-.45-6.69-.45-10.09,0-60.2,47-109,105-109S767,382.8,767,443Z" transform="translate(-541 -314)"/>
  </g>
</svg>
