<svg xmlns="http://www.w3.org/2000/svg" width="58" height="49" viewBox="0 0 58 49"><g><g><path fill="#d8e2dc" d="M30.209 46.795c-.732 0-1.482-.348-2.112-.98-1.021-1.024-1.603-2.624-1.597-4.39l.005-1.283a1.506 1.506 0 0 0-.437-1.065 1.503 1.503 0 0 0-1.063-.441H6.545a4.93 4.93 0 0 1-4.924-4.925V15.509a4.93 4.93 0 0 1 4.924-4.925h18.53a1.5 1.5 0 0 0 1.5-1.495l.005-1.804c.006-3.201 1.931-5.35 3.724-5.35.579 0 1.148.21 1.693.627l22.442 17.137c1.26.963 2.009 2.74 2.003 4.753-.006 2.006-.762 3.77-2.022 4.72L31.892 46.177c-.543.41-1.11.618-1.683.618z"/></g><g><path fill="#9d8189" d="M31.086 3.754l11.222 8.572 11.22 8.565c.878.67 1.42 2.032 1.415 3.557-.005 1.516-.551 2.868-1.427 3.528L42.25 36.478l-11.266 8.504c-.276.208-.536.313-.777.313-.33 0-.702-.191-1.05-.54-.73-.731-1.163-1.974-1.158-3.322l.005-1.284a3.002 3.002 0 0 0-3-3.013H6.545a3.428 3.428 0 0 1-3.424-3.425V15.509a3.429 3.429 0 0 1 3.425-3.425h18.529a2.998 2.998 0 0 0 2.999-2.991l.006-1.806c.005-2.386 1.298-3.851 2.224-3.852.242 0 .506.107.782.319zM25.08 7.28l-.005 1.803H6.545c-3.533 0-6.424 2.892-6.424 6.425V33.71c0 3.534 2.89 6.425 6.425 6.425h18.459L25 41.42c-.012 4.005 2.485 6.875 5.208 6.875.864 0 1.75-.288 2.587-.921l11.264-8.501 11.265-8.502c3.479-2.624 3.495-9.214.026-11.864L44.128 9.94 32.907 1.37c-.84-.642-1.733-.935-2.604-.935-2.716 0-5.215 2.853-5.223 6.846z"/></g></g></svg>