<svg xmlns="http://www.w3.org/2000/svg" width="39" height="36" viewBox="0 0 39 36"><g><g><path fill="#ffe5d9" d="M9.726 7.226a3.619 3.619 0 0 1-3.614 3.615 3.619 3.619 0 0 1-3.614-3.615 3.618 3.618 0 0 1 3.614-3.614 3.618 3.618 0 0 1 3.614 3.614zm-9.228 0a5.614 5.614 0 1 0 11.229.002A5.614 5.614 0 0 0 .498 7.226z"/></g><g><path fill="#ffe5d9" d="M37.03 7.226a3.619 3.619 0 0 1-3.614 3.615 3.62 3.62 0 0 1-3.614-3.615 3.62 3.62 0 0 1 3.614-3.614 3.618 3.618 0 0 1 3.614 3.614zm-9.228 0a5.614 5.614 0 1 0 11.228.002 5.614 5.614 0 0 0-11.228-.002z"/></g><g><path fill="#f4acb7" d="M19.766 34.933c-9.116 0-16.533-7.417-16.533-16.533 0-9.116 7.417-16.533 16.533-16.533C28.883 1.867 36.3 9.284 36.3 18.4c0 9.116-7.417 16.533-16.534 16.533z"/></g><g><path fill="#ffe5d9" d="M35.299 18.4c0 8.565-6.968 15.532-15.533 15.532-8.564 0-15.533-6.967-15.533-15.533 0-8.565 6.969-15.533 15.533-15.533 8.565 0 15.533 6.968 15.533 15.533zm-33.066 0c0 9.683 7.85 17.532 17.533 17.532 9.684 0 17.533-7.849 17.533-17.533 0-9.683-7.85-17.533-17.533-17.533-9.683 0-17.533 7.85-17.533 17.533z"/></g><g><path fill="none" stroke="#ffe5d9" stroke-linecap="round" stroke-linejoin="round" stroke-miterlimit="20" stroke-width="2" d="M13.204 21.782v0s2.142 3.48 6.959 3.48c4.819 0 6.96-3.48 6.96-3.48v0"/></g><g><path fill="none" stroke="#ffe5d9" stroke-miterlimit="20" stroke-width="2" d="M12.943 13.536a1.07 1.07 0 1 1-2.14 0 1.07 1.07 0 0 1 2.14 0z"/></g><g><path fill="none" stroke="#ffe5d9" stroke-miterlimit="20" stroke-width="2" d="M29.004 13.536a1.07 1.07 0 1 1-2.14 0 1.07 1.07 0 0 1 2.14 0z"/></g></g></svg>