<svg xmlns="http://www.w3.org/2000/svg" viewBox="0 0 283.99 546.77">
  <defs>
    <style>
      .cls-1 {
        fill: #fcebb6;
      }

      .cls-2 {
        fill: #f4dcb5;
      }

      .cls-3 {
        fill: #78c0a8;
      }

      .cls-4 {
        fill: #e2b9b5;
      }

      .cls-5 {
        fill: #f8cac1;
      }

      .cls-6 {
        fill: #84bbbf;
      }

      .cls-7 {
        fill: #f7a3a2;
      }
    </style>
  </defs>
  <title>SecondPage_Girl_2</title>
  <g id="Слой_5" data-name="Слой 5">
    <g>
      <path class="cls-1" d="M867.09,773A118.22,118.22,0,0,1,749,654.91V508.09a118.09,118.09,0,1,1,236.18,0V654.91A118.22,118.22,0,0,1,867.09,773Z" transform="translate(-746 -230.92)"/>
      <path class="cls-2" d="M867.09,393c63.3,0,115.09,51.79,115.09,115.09V654.91c0,63.3-51.79,115.09-115.09,115.09h0C803.79,770,752,718.21,752,654.91V508.09C752,444.79,803.79,393,867.09,393h0m0-6A121.43,121.43,0,0,0,746,508.09V654.91a121.09,121.09,0,0,0,242.18,0V508.09A121.43,121.43,0,0,0,867.09,387Z" transform="translate(-746 -230.92)"/>
    </g>
  </g>
  <g id="Слой_7" data-name="Слой 7">
    <path class="cls-3" d="M945,692V770.9a241,241,0,0,1-57,6.79,238,238,0,0,1-99.36-21.48V692a36.17,36.17,0,0,1,36.07-36.06h84.22A36.17,36.17,0,0,1,945,692Z" transform="translate(-746 -230.92)"/>
    <path class="cls-3" d="M872.28,750.52l-46.35,19.09a234,234,0,0,1-37.29-13.4c-3-1.4-6-2.85-9-4.38l9.23-64.31Z" transform="translate(-746 -230.92)"/>
    <path class="cls-3" d="M955.86,768q-5.37,1.59-10.86,2.92-9.54,2.33-19.4,3.87l-13.14-5.48a233.17,233.17,0,0,1-16.88-35.85c-1.16-3.15-2.26-6.29-3.27-9.48l52-38.92Z" transform="translate(-746 -230.92)"/>
  </g>
  <g id="Слой_6" data-name="Слой 6">
    <rect class="cls-4" x="97.37" y="378.35" width="44.45" height="70.73" rx="22.23"/>
  </g>
  <g id="Слой_3" data-name="Слой 3">
    <path class="cls-5" d="M968.09,544.37v3.84c0,55.32-45.26,100.57-100.58,100.57h-.12c-55.32,0-100.57-45.25-100.57-100.57v-3.83q0-5.11.5-10.1a101,101,0,0,1,92-90.15c2.65-.21,5.31-.32,8-.32h.13C922.83,443.81,968.07,489.05,968.09,544.37Z" transform="translate(-746 -230.92)"/>
    <text x="-746" y="-230.92"/>  </g>
  <g id="Слой_4" data-name="Слой 4">
    <path class="cls-1" d="M865.6,445.72a93.63,93.63,0,0,1-5.28,31.1,92.15,92.15,0,0,1-100.91,61c5.1-55.11,46.14-99.11,97-103.55,2.79-.24,5.6-.37,8.45-.37A95.57,95.57,0,0,1,865.6,445.72Z" transform="translate(-746 -230.92)"/>
    <path class="cls-1" d="M975.5,544.32a112.15,112.15,0,0,1-12.9.74c-46.69,0-86.17-28.86-99.25-68.59a92,92,0,0,1-3.94-39.73c2.82-.22,5.67-.34,8.55-.34h.15C927.17,436.4,975.48,485,975.5,544.32Z" transform="translate(-746 -230.92)"/>
  </g>
  <g id="Слой_8" data-name="Слой 8">
    <circle class="cls-6" cx="88.5" cy="323.58" r="11.5"/>
    <circle class="cls-6" cx="151.5" cy="323.58" r="11.5"/>
    <path class="cls-7" d="M902,593c-6.41,16.55-20.33,28-36.45,28s-30-11.45-36.44-28Z" transform="translate(-746 -230.92)"/>
  </g>
  <g id="Слой_11" data-name="Слой 11">
    <ellipse class="cls-7" cx="63.5" cy="348.58" rx="13.5" ry="10.5"/>
    <ellipse class="cls-7" cx="176.5" cy="348.58" rx="13.5" ry="10.5"/>
  </g>
  <g id="Слой_10" data-name="Слой 10">
    <path class="cls-7" d="M972,516c0,3.4-.15,6.77-.45,10.09C966.65,468.84,921.72,424,867,424s-99.65,44.84-104.55,102.09c-.3-3.32-.45-6.69-.45-10.09,0-60.2,47-109,105-109S972,455.8,972,516Z" transform="translate(-746 -230.92)"/>
  </g>
</svg>
