<svg xmlns="http://www.w3.org/2000/svg" width="39" height="36" viewBox="0 0 39 36"><g><g><path fill="#ffe5d9" d="M9.572 6.839a3.618 3.618 0 0 1-3.613 3.615 3.619 3.619 0 0 1-3.614-3.615 3.618 3.618 0 0 1 3.614-3.614 3.618 3.618 0 0 1 3.613 3.614zm-9.227 0a5.614 5.614 0 1 0 11.228.001A5.614 5.614 0 0 0 .345 6.84z"/></g><g><path fill="#ffe5d9" d="M36.877 6.839a3.62 3.62 0 0 1-3.614 3.615 3.619 3.619 0 0 1-3.614-3.615 3.618 3.618 0 0 1 3.614-3.614 3.618 3.618 0 0 1 3.614 3.614zm-9.228 0a5.614 5.614 0 1 0 11.228.001A5.614 5.614 0 0 0 27.65 6.84z"/></g><g><path fill="#f4acb7" d="M19.612 34.545c-9.116 0-16.533-7.417-16.533-16.533 0-9.117 7.417-16.533 16.533-16.533 9.116 0 16.533 7.416 16.533 16.533 0 9.116-7.417 16.533-16.533 16.533z"/></g><g><path fill="#ffe5d9" d="M35.145 18.012c0 8.565-6.968 15.533-15.533 15.533S4.08 26.575 4.08 18.01c0-8.565 6.968-15.533 15.533-15.533s15.533 6.968 15.533 15.533zm-33.066 0c0 9.683 7.85 17.533 17.533 17.533 9.684 0 17.533-7.85 17.533-17.534 0-9.683-7.849-17.533-17.533-17.533C9.928.478 2.08 8.328 2.08 18.011z"/></g><g><path fill="none" stroke="#ffe5d9" stroke-linecap="round" stroke-linejoin="round" stroke-miterlimit="20" stroke-width="2" d="M12.985 19.59v0s1.2 5.214 7.024 5.284c5.825.07 7.431-5.283 7.431-5.283v0"/></g><g><path fill="none" stroke="#ffe5d9" stroke-miterlimit="20" stroke-width="2" d="M12.79 13.148a1.07 1.07 0 1 1-2.141 0 1.07 1.07 0 0 1 2.14 0z"/></g><g><path fill="none" stroke="#ffe5d9" stroke-miterlimit="20" stroke-width="2" d="M28.85 13.148a1.07 1.07 0 1 1-2.14 0 1.07 1.07 0 0 1 2.14 0z"/></g></g></svg>